<svg width="108" height="108" viewBox="0 0 108 108" fill="none" xmlns="http://www.w3.org/2000/svg">
<path d="M41.688 43.6104C41.8284 42.3684 42.1524 41.1589 42.7032 40.0033C43.7076 37.9081 45.252 36.3312 47.3472 35.2944C49.0212 34.4736 50.7924 34.0957 52.6284 33.9769C52.7472 33.9661 52.8552 33.9337 52.974 33.9229C53.6544 33.9229 54.3348 33.9229 55.0152 33.9229C55.8144 34.0309 56.6244 34.0957 57.4128 34.2469C59.5944 34.6465 61.56 35.5105 63.1692 37.0549C64.8756 38.6965 65.8584 40.7269 66.2148 43.0597C66.3336 43.8157 66.3768 44.5933 66.3768 45.3601C66.3876 47.8873 66.3876 50.4253 66.3876 52.9525" stroke="black" stroke-miterlimit="10" stroke-linecap="round" stroke-linejoin="round"/>
<path d="M66.3984 54.9286C66.3984 55.0035 66.3984 54.8644 66.3984 54.9286" stroke="black" stroke-miterlimit="10" stroke-linecap="round" stroke-linejoin="round"/>
<path d="M66.3984 56.9161C66.3984 58.9033 66.3984 60.8797 66.3984 62.8669C66.3984 64.6705 66.0744 66.3985 65.2968 68.0293C64.2924 70.1137 62.7696 71.6905 60.6744 72.7057C58.2876 73.8721 55.7388 74.1637 53.1144 74.0665C51.1272 73.9909 49.194 73.6237 47.3904 72.7489C44.928 71.5501 43.2648 69.6385 42.3036 67.0897C41.7852 65.7073 41.5908 64.2601 41.5908 62.7805C41.5908 57.1861 41.5908 51.5917 41.5908 46.0081" stroke="black" stroke-miterlimit="10" stroke-linecap="round" stroke-linejoin="round"/>
<path d="M52.3584 44.4746C52.3584 45.047 52.3476 45.6194 52.3584 46.2026C52.38 47.1854 53.0604 47.8982 53.9784 47.909C54.918 47.9198 55.6308 47.207 55.6416 46.2026C55.6524 45.0794 55.6524 43.9562 55.6416 42.833C55.6308 41.8502 54.9396 41.1374 54.0216 41.1266C53.082 41.1158 52.38 41.8394 52.3584 42.833C52.3476 43.3838 52.3584 43.9238 52.3584 44.4746Z" stroke="black" stroke-miterlimit="10"/>
</svg>
